<svg xmlns="http://www.w3.org/2000/svg" viewBox="0 0 100 100">
	<defs>
		<linearGradient id="colorGradient" x1="0%" y1="0%" x2="100%" y2="100%">
			<stop offset="0%" style="stop-color:#ff6b6b;stop-opacity:1" />
			<stop offset="33%" style="stop-color:#4ecdc4;stop-opacity:1" />
			<stop offset="66%" style="stop-color:#45b7d1;stop-opacity:1" />
			<stop offset="100%" style="stop-color:#96ceb4;stop-opacity:1" />
		</linearGradient>
	</defs>
	
	<!-- Background -->
	<rect width="100" height="100" rx="20" fill="#f8f9fa" stroke="#e9ecef" stroke-width="2"/>
	
	<!-- Color document -->
	<rect x="15" y="20" width="30" height="40" rx="3" fill="url(#colorGradient)" stroke="#fff" stroke-width="1"/>
	<rect x="20" y="25" width="20" height="2" fill="#fff" opacity="0.8"/>
	<rect x="20" y="30" width="15" height="2" fill="#fff" opacity="0.8"/>
	<rect x="20" y="35" width="18" height="2" fill="#fff" opacity="0.8"/>
	
	<!-- B&W document -->
	<rect x="55" y="20" width="30" height="40" rx="3" fill="#6c757d" stroke="#fff" stroke-width="1"/>
	<rect x="60" y="25" width="20" height="2" fill="#fff" opacity="0.9"/>
	<rect x="60" y="30" width="15" height="2" fill="#fff" opacity="0.9"/>
	<rect x="60" y="35" width="18" height="2" fill="#fff" opacity="0.9"/>
	
	<!-- Arrow pointing from color to split -->
	<path d="M 35 70 Q 50 65 65 70" stroke="#495057" stroke-width="2" fill="none" marker-end="url(#arrowhead)"/>
	
	<!-- Arrow marker -->
	<defs>
		<marker id="arrowhead" markerWidth="10" markerHeight="7" refX="9" refY="3.5" orient="auto">
			<polygon points="0 0, 10 3.5, 0 7" fill="#495057"/>
		</marker>
	</defs>
	
	<!-- Split icon -->
	<circle cx="50" cy="82" r="8" fill="#007bff" stroke="#fff" stroke-width="2"/>
	<path d="M 46 82 L 54 82 M 50 78 L 50 86" stroke="#fff" stroke-width="2" stroke-linecap="round"/>
</svg>